<svg xmlns="http://www.w3.org/2000/svg" width="52" height="52" viewBox="0 0 52 52">
  <defs>
    <style>
      .cls-1 {
        fill: #6600ad;
        fill-rule: evenodd;
      }
    </style>
  </defs>
  <title>about</title>
  <g id="Layer_2" data-name="Layer 2">
    <g id="main">
      <path class="cls-1" d="M29.26,9.21a2.83,2.83,0,0,0-2.79,2.84,2.66,2.66,0,0,0,2.69,2.73A2.86,2.86,0,0,0,32,12a2.67,2.67,0,0,0-2.73-2.74Zm1.63,24.58c-1.54,3.31-3.55,6.05-4.56,6.05-.63,0-1-.39-1-1.15a16.75,16.75,0,0,1,.77-4.18L28,28a31.85,31.85,0,0,0,1.25-6.14c0-2.11-1.15-3.17-3.41-3.17-2.64,0-5.18,2.54-7.54,7.63l1,.63c1.59-3.46,3.46-6.05,4.61-6.05.62,0,.91.38.91,1.15A16.85,16.85,0,0,1,24,26.25L22.1,32.93A27.57,27.57,0,0,0,21,38.83Q21,42,24.41,42c2.54,0,5-2.55,7.49-7.59ZM26,52A26,26,0,1,1,52,26,26,26,0,0,1,26,52ZM26,2A24,24,0,1,0,50,26,24,24,0,0,0,26,2Z"/>
    </g>
  </g>
</svg>
