<svg xmlns="http://www.w3.org/2000/svg" width="324.02" height="122.58" viewBox="0 0 324.02 122.58">
  <defs>
    <style>
      .cls-1 {
        fill: #fff;
        fill-rule: evenodd;
      }
    </style>
  </defs>
  <title>logo</title>
  <g id="Layer_2" data-name="Layer 2">
    <g id="main">
      <g>
        <g>
          <path class="cls-1" d="M30.83,27h8.9a1.42,1.42,0,1,1,0,2.84h-8.9a1.42,1.42,0,0,1,0-2.84ZM35.28,0c-2.36,3.9-5.12,5.19-5.12,10.38,0,4.31,2,10.22,5.12,14.77,3.15-4.55,5.12-10.46,5.12-14.77C40.4,5.19,37.64,3.9,35.28,0ZM47,24.82c.09-5.34-6.37-4-7.42-.06-.25.93-1.5.76-1.32-.22.5-2.8,2.92-6.75,5.3-8.08C48.67,13.63,54.69,20.85,47,24.82Zm11.73,9.4c-3-1.19-3.85,3.22.27,3.35C57.8,36.79,57.32,35.1,58.77,34.22Zm11.75-4.44c.64-3.79-6.73-6.9-8.22.83-.63,3.23,1.37,7.07-.89,8-1.69.74-5.52-.38-7.11-1.26-1.14-.63-2.91-1.94-4.13-2.16-2.16-.39-4,.44-6,.42-3.52,0-4.94-1-5.74-4.31-.23-.92-1.55-.72-1.94.67a5.21,5.21,0,0,0-.11,2.42c.39,2.92,2.57,2.91,5.2,3a89.68,89.68,0,0,1,16.86,2.26c3,.76,7,.64,6.38-3.53C64.15,32.25,65.5,27.61,70.52,29.78Zm-16.09,5c-3-2.25-1.86-6.36,1.89-6.11s4.52,4,4.73,7a7.3,7.3,0,0,1-.5-1.42C59.73,30.92,54.45,31.5,54.43,34.75ZM23.52,24.82c-7.65-4-1.63-11.19,3.44-8.36,2.38,1.33,4.8,5.28,5.3,8.08.18,1-1.08,1.15-1.33.22C29.89,20.84,23.43,19.48,23.52,24.82Zm-11.73,9.4c3-1.19,3.85,3.22-.27,3.35C12.76,36.79,13.24,35.1,11.79,34.22ZM0,29.78c5-2.17,6.36,2.47,5.73,6.43-.66,4.17,3.41,4.29,6.38,3.53A89.68,89.68,0,0,1,29,37.48c2.63-.13,4.81-.12,5.2-3A5.35,5.35,0,0,0,34.1,32c-.39-1.39-1.71-1.59-1.94-.67-.8,3.27-2.23,4.27-5.74,4.31-2.08,0-3.87-.81-6-.42-1.22.22-3,1.53-4.13,2.16-1.59.88-5.42,2-7.12,1.26-2.26-1-.26-4.82-.88-8C6.76,22.88-.6,26,0,29.78Zm16.09,5c3-2.25,1.85-6.36-1.89-6.11s-4.52,4-4.73,7a7.3,7.3,0,0,0,.5-1.42C10.83,30.92,16.11,31.5,16.13,34.75ZM2.89,77.48c-.64-8.86-.47-17.82-.43-26.71,18.52-7.45,47.11-7.45,65.64,0,0,8.89.21,17.85-.44,26.71-1.78,24.57-13.38,32.61-32.38,45.1C16.28,110.09,4.67,102.05,2.89,77.48Zm3.38-24c0,7.91-.13,15.84.44,23.73C8.3,99.12,18.08,106.69,35.28,118c17.2-11.31,27-18.88,28.57-40.8.57-7.89.47-15.82.44-23.73C49.36,47.6,21.2,47.6,6.27,53.47Zm60.89-5.69c-18-7-45.74-7-63.76,0-1.77.68-1.89-2.36-.23-3,18.1-7.08,46.12-7.08,64.22,0C69.05,45.42,68.92,48.46,67.16,47.78Z"/>
          <path class="cls-1" d="M12.85,66.85c-.24-1.47.63-3.35,2.6-3,3.18,0,.51-2.57,2.74-3.76a2.41,2.41,0,0,1,2.59.37c4.44.73,6.78,6.66,3.24,11A13.54,13.54,0,0,0,22.9,73.1c1.39-.89,3.66.1,2.28,2.18-.06-1.36-1.7-1.72-2.14-.57a1.34,1.34,0,0,1,.17,2.63c0-.43.08-1.18-.61-1.28-1.36-.19-1.51,2.18-.86,2.71.48-1.4,3.33-1.19,3.72.56S24.21,82.44,22.75,81c1.36.08,1.63-1.7.52-1.54s-.73,2.63.52,3.67a4.41,4.41,0,0,0,4.88.34c.88-1.42,2.67-1.84,3.19-4.15-1.19,0-1.44-.58-1.4-1.64.42.29.71.51,1.22.36,1-.29.08-1.59-.82-2.09a2,2,0,0,1-.56-.62c-1.43-.92-1.9-2.1-1.08-3.55a1.68,1.68,0,0,0-.79.59,1.79,1.79,0,0,1-.07-1.7c-2.05-3.64.73-3.44,0-5.5a1.63,1.63,0,0,1,0-1.13,1.83,1.83,0,0,0-.8,1.17c-.16-1.43-.17-2.74,1.37-3.59a2.36,2.36,0,0,1-1-1.6,5,5,0,0,0,1.79.31,2.27,2.27,0,0,0-.2-.59c.53.05,1.08.06,1.58.07A2.76,2.76,0,0,0,29.83,58a3.25,3.25,0,0,1,3.37.72A2.67,2.67,0,0,0,32,57.53c.76,0,2.23-.21,3.1,1a2.67,2.67,0,0,0-.26-.91c.56-.05,3.72.12,2.88,1.21,1.15.37,3,.24,2.46,1.77.89-.28,2.37-.39,3.11.36.74-.15,2-.16,1.44,1.14a4.75,4.75,0,0,1-.65-.12,2,2,0,0,0,.45.59.84.84,0,0,1-.65,1.34,1.43,1.43,0,0,1-.81,1c.12-.28.32-.86-.16-1.11s-1.11-.65-1.54-.15S40,65,40.43,65.55s1.26.34,1.13-.54c.28.16.54.44.49.7.69.2,1.73,1.07-.49,3.05a2,2,0,0,0-1.9-1.51,3.47,3.47,0,0,0-.88,0c-.27.65-1,1.6-.16,2,.62.3,1.28-.51,2.26-.16.73.27.11,1.28,2,1.64.72-2,2.89-2.88,4.45-3.46,1.33-.5,1.9-1.6.77-2.67-.9-.84-1.54-1.6-.57-2.67.19-.44.74-.53,1.55-.47-.4.31-.31.42-.24.6a1.32,1.32,0,0,1,.63,1.36,2,2,0,0,0,.27.67c.4.51,1-.65.6-1.52-.57-1.17-.24-2.6,1.23-2.19.55-.4,1.26.15,1.6.55-1.51-.2-.08.79-.95,1.63-.33.42-.48.7-.46.84s.4.1.65,0,1.89-1.72,2.53-.64a1.31,1.31,0,0,1,.12.64c.59.14.55.7.36,1.46-.17-.33-.31-.39-.55-.19a1.22,1.22,0,0,1-1.85.43c-.63.65-.62,1.2.12,1.71a1.07,1.07,0,0,1,1.35.72c.2.16.31.24.65-.09-.2.65-.24,1.17-1,1.36-2.28,1.14-1.57-1.11-2.8-.63-.6.57-.16,1.2.23,1.71-.45.33-.89.42-1.47-.29a2,2,0,0,0,.44,1.4,1.79,1.79,0,0,1-1.38-.46,3.07,3.07,0,0,0,1,1.88,1.76,1.76,0,0,1-1.37-.27,2.35,2.35,0,0,0,.48.66,1.86,1.86,0,0,1-1.33,0c-.85.66-1,1.31-1.13,1.32.21.22.39.85.93.88a2.06,2.06,0,0,1,2.18,2,2.56,2.56,0,0,0-2.62-.79,1.14,1.14,0,0,0,1.47.8c-.25.75-1,.89-1.77.75,1.87,1.8,5.1,4.49,6.83,2.45.66-1.32,1.73-1.37,2.32-.95.55,0,.73.38.8,1.15-.87-.71-.65.81-1.89.83-.8.38-.66.59-.52.7.95.7,1.46-.8,2.95-.61.56.07.74.5.69,1.06.35.25.32.81-.19,1.41,0-.87-.39-.65-.6-.43-1,.48-1-.18-1.85-.2-.23,0-.18.16-.05.44.35.44,1.88,1.33,1.07,2.12a1.14,1.14,0,0,1-.59.25c-.11.41-.55.46-1.28.45.15,0,.28-.16.07-.36a1,1,0,0,1-.73-1.28,1.64,1.64,0,0,0-1.68-.2,1.25,1.25,0,0,1-1.12.95c-.13.2,0,.3.3.46-.56.09-1.22.13-1.43-.33-1.08-.45-1.23-1.15-1.11-1.7.14-.71.69-1.2-.3-1.11-.73.06-1.07.75-1.28,1.35a.89.89,0,0,1-.5-.59,1.16,1.16,0,0,1-.91-.33c-1.17-.16-1.75-.77-1.46-1.89a1.65,1.65,0,0,0-.9.9,2,2,0,0,1-1.78-.91c-1.26,2.53-5.84,2.27-7.59,3.89.13,1.72,1.87.3,4.42.59C42,86.17,40.6,88,41.87,88.7s.29,2.22,1.5,2.13c1.37-.11,2.12-2.06.17-2.52a2.45,2.45,0,0,1,1.87.06c.63.36.34,1.16.55,1.49.4-.27.28-1.66,2.08-1.55s.55,2.31,1.2,2.79.42-1.2,1.84-.17c-1.31.08-.67,1.11-2.3.82-1.08-.19-.11-2.36-1.9-1.81A1.78,1.78,0,0,1,45,92a1.46,1.46,0,0,1,.7,1.72c-1-1.06-1-.51-2-.81a1.21,1.21,0,0,1-.69-.52,4.13,4.13,0,0,1-1.26-.26,1,1,0,0,1-.49.67c1.31,1.36,1.07,2.89,3.35,3.88a1.26,1.26,0,0,1,.92.8c.64.31-.14-.94.77-1.89a1.21,1.21,0,0,1,1.38-.18c.48,0,.76.21,1.09.88-1.09-.52-.1,1.14-1.26,1.14a.64.64,0,0,1-.4.56.85.85,0,0,0,.73.49c.31-.36,1.75-.78,1.63.69.72.41.37,1.06-.06,1.61,0-.51-.26-.54-.49-.43-.54.59-1.82.32-1.75-.44-.25-.26-.82-.21-1.17-.15a1,1,0,0,1-.46.78,2.44,2.44,0,0,1-.2,1.5c-.27-.91-.57-.86-.92-1.06-1.38.38-2-.37-1.72-1.25a1.92,1.92,0,0,1-1.14.07,1.7,1.7,0,0,0,.33.74c-.77-.34-1.48-.57-1.44-1.49a1.35,1.35,0,0,1-.56-1.31c-.88-.36-.51-1.35-1.07-1.81-1.12,1.36-2,1.21-2.82.86.56-.17,1-.24,1.2-1-.39,0-.65-.75-.8-.78-.1.27.06,1.1-1,1.23-1.42.19-.76-1.84-1.55-2.49,1.37-.16,1.44.9,1.57.91s.2-1,1-.94,1.08,1.08,1.09.51c0-1-.91-1.15-1.23-2a.89.89,0,0,1-1-.81A1.85,1.85,0,0,1,34,90.3,1.27,1.27,0,0,1,32.92,90c-1,3-4,3.91-4.14,4.31-.09.21.16.51.31.72,2.25-.67,3.82,1,1.75,2.76-.55.47-.65.84.08.86,1.8.06,1.92,2.07.15,2.75.74-2.64-1.1-.87-2-2a1.83,1.83,0,0,1-.23-1.49c-1,.19-1.4-.38-1.62-1.26.87.91,1.61.13.8-.59a3,3,0,0,1-1.08-1.65,2,2,0,0,1-1.2-.53,1.11,1.11,0,0,0-.89.15c-.16,1.13-1.77,1.73-1.3,3.12s2-.63,2.86.8c1.18.16,1.21,1.31,1.18,1.93a1.26,1.26,0,0,0-1.22-.68.75.75,0,0,1-.47.54,1.73,1.73,0,0,1-.07.64,1.85,1.85,0,0,1,0,1.85c-.2-.66-.42-.83-.82-1-.64.27-1.41.46-1.81-.12a1.88,1.88,0,0,1-.63.15,3.36,3.36,0,0,1-.74.67,1.53,1.53,0,0,0,.07-.88c-1.54-.33-1.74-1.27-1.11-2.13a.58.58,0,0,0-.5-.53,2,2,0,0,1-1.25.27,1.44,1.44,0,0,0-.17,1c-.42-.49-.89-1-.65-1.74a1.79,1.79,0,0,1,1.72-2.44c.18-1.16-1.67-1.89-.47-3.42.46-.38.93-.86.44-1.57a.88.88,0,0,0-1,0c-.26,1.36-2.38,1-2.06-.34-1.53-.18-.2-2.69-.81-2.78s-.81.37-1,.76c.06-1.63.57-2,.8-2.08,2.3-.81.84,4.13,2.63,2.66.63-1.13,1.26,0,2.22-.07.06-.86-.61-1.17-1.36-1.35C20.7,86.13,22.19,87,22,89a1.27,1.27,0,0,1,1.07.85A2.47,2.47,0,0,1,25,89.57a1.44,1.44,0,0,1,.66-.63c.15-2,2.57-2.44,1.71-2.83-5.95-.31-8-4.37-7.62-10.38a2.68,2.68,0,0,1-2-.52c-1.17-.79-1.08-3.77.36-4.29s2.63.43,2.05,2c-1.47-1.32-2.15.27-1.3,1,1.35,1.23,4.67-1.9,1.55-4.17.5-.13,1.73-.49,2.22.58a1.67,1.67,0,0,0-2.64-1.88,1.58,1.58,0,0,1,1.62-1.75,2.4,2.4,0,0,1,2.24,1c-.31-1.5-.88-3.24-2.53-1.78a2.66,2.66,0,0,1-.16-1.4c.26-.91,1.77-.67,2.52-.09A3.16,3.16,0,0,0,21,62.5c-.76.4-.69,1.07-.61,1.84.33,3.32-1.79,3.34-3.41,1.5-.82-.37-2.17-.62-2.49.12-.49,1.15.55,2.2,1.31,2.74C14.8,68.59,13.11,68.49,12.85,66.85Zm26.57-6c-.41-.6-1.49-.43-2,0C38.35,60.91,39,61.49,39.42,60.81Z"/>
        </g>
        <path class="cls-1" d="M106.82,72.27c0-2.56-.63-4.67-3.1-5.84l-7.09-3.35V90.47h5.56c4,0,4.63-1.12,4.63-5ZM96.63,56.21l8.48,4.25c5.07,2.55,8.55,5.78,8.55,11.81V85.73c0,4.87-1.77,10.91-7.63,10.91H89.78V32.19h22.67l1.21,9.63a6.4,6.4,0,0,0-6.19-3.45H96.63Zm30.2,21.14v8.08c0,3.92.63,5,4.62,5h10.76l-.45,6.17H127.62c-5.87,0-7.64-6.06-7.64-10.93V58.83c0-4.87,1.77-10.93,7.64-10.93h7.69c5.86,0,7.68,6.05,7.68,10.93C143,69.4,135.84,70.73,126.83,77.35Zm0-7.41c5.73-4.2,9.26-4.38,9.26-11.11,0-3.85-.59-5.25-4.62-5.25s-4.64,1.38-4.64,5.25Zm20.78,26.7-.44-6.17h8.53c3.44,0,4.62-1.77,4.62-5v-6.7c0-2.09-.45-4-2.91-4h-7.3V68.94h6.62c2.31,0,2.7-2.16,2.7-4V59.11c0-3.89-.63-5-4.62-5h-7.34l.43-6.17h10.69c5.93,0,7.69,6,7.69,10.91v5.5c0,2.5-.3,5.92-2.81,7.25,3.1,1.19,3.75,4.57,3.75,7.52v6.63c0,4.89-1.82,10.93-7.69,10.93Zm49.86,0h-6.9V54c-5.71,0-8.57,7.39-8.57,13.85V96.64h-6.85V67.84c0-10.83,5.79-19.94,15.42-19.94h6.9Zm15.7,0h-6.84V47.9h6.84V59.7l8.48-7.17V47.9h6.89V96.64h-6.89V60.55l-8.48,7.27Zm49.46,0h-6.84V62.08L250,69.35l-5.76-7.27V96.64h-6.85V47.9h6.85v4.63L250,59.7l5.76-7.17V47.9h6.84Zm15.72,0H271.5V47.9h6.85V59.7l8.47-7.17V47.9h6.9V96.64h-6.9V60.55l-8.47,7.27ZM323.57,47.9l.45,6.17H314.7V96.64h-6.84V54.07h-9.17l.36-6.17Z"/>
        <g>
          <path class="cls-1" d="M95.39,112.05c0,.18-.33.19-.52.19s-.52,0-.52-.19V105.3H90.82v6.75c0,.18-.33.19-.52.19s-.52,0-.52-.19v-7.23a.37.37,0,0,1,.38-.42H95c.22,0,.37.13.37.42Z"/>
          <path class="cls-1" d="M103.36,106.68c0,1.49-1,2.56-2.87,2.56H99.6V112c0,.19-.33.2-.51.2s-.52,0-.52-.2v-7.19a.4.4,0,0,1,.41-.45h1.67C102.53,104.4,103.36,105.38,103.36,106.68Zm-1.09.09c0-.92-.51-1.52-1.71-1.52h-1v3.14h.94A1.54,1.54,0,0,0,102.27,106.77Z"/>
          <path class="cls-1" d="M110.4,111.77c0,.18,0,.43-.21.43h-3.74a.37.37,0,0,1-.39-.42v-7a.38.38,0,0,1,.39-.42h3.7c.18,0,.2.26.2.44s0,.42-.2.42H107.1v2.45h2.62c.18,0,.2.25.2.43s0,.41-.2.41H107.1v2.78h3.09C110.38,111.33,110.4,111.58,110.4,111.77Z"/>
          <path class="cls-1" d="M121.68,112c0,.19-.33.2-.52.2s-.52,0-.52-.2v-6.79h0l-2.75,6.82c0,.16-.33.17-.5.17s-.46,0-.51-.17l-2.63-6.82h0V112c0,.19-.33.2-.53.2s-.51,0-.51-.2v-7.17a.42.42,0,0,1,.43-.47h.64a.81.81,0,0,1,.91.63l2.23,5.65h0l2.32-5.63c.2-.53.44-.65.8-.65h.67a.43.43,0,0,1,.45.47Z"/>
          <path class="cls-1" d="M130.71,112.05c0,.18-.31.19-.52.19s-.51,0-.51-.19v-5.12c0-.23,0-.52,0-.75h0c-.16.28-.32.52-.49.8l-3.38,5.07c-.12.17-.22.19-.5.19s-.45,0-.45-.21v-7.48c0-.18.33-.19.51-.19s.52,0,.52.19v5.15c0,.29,0,.46,0,.71h0c.27-.43.32-.53.5-.79l3.37-5.08c.1-.16.26-.18.49-.18s.46,0,.46.2Z"/>
          <path class="cls-1" d="M139.74,111.83c.13.38,0,.41-.46.41s-.51,0-.6-.19l-.67-1.9h-3.24l-.64,1.87c-.07.22-.29.22-.57.22-.43,0-.57,0-.43-.41l2.61-7.25c.08-.22.33-.22.67-.22s.63,0,.71.22l2.62,7.25Zm-3.36-6.39h0L135,109.32h2.71Z"/>
          <path class="cls-1" d="M147.61,112.05c0,.18-.33.19-.52.19s-.52,0-.52-.19v-6.76h-2.18c-.16,1.34-.37,3-.67,4.3a5.06,5.06,0,0,1-.9,2.13,1.73,1.73,0,0,1-1.44.58c-.22,0-.25-.23-.25-.45s0-.42.12-.49.73.2,1.22-1.15a27.61,27.61,0,0,0,.93-5.35c0-.27.11-.46.39-.46h3.46c.25,0,.36.17.36.42Z"/>
          <path class="cls-1" d="M156,109.76c0,1.41-.86,2.44-3.07,2.44h-1.72a.38.38,0,0,1-.4-.42v-7.23c0-.18.32-.19.52-.19s.51,0,.51.19v2.92H153C155.17,107.47,156,108.41,156,109.76Zm-1.07.1c0-1.25-.85-1.54-2-1.54h-1.09v3H153C154.12,111.33,154.93,111,154.93,109.86Z"/>
          <path class="cls-1" d="M164.09,112c0,.19-.32.2-.51.2s-.52,0-.52-.2v-3.46h-3.54V112c0,.19-.33.2-.52.2s-.52,0-.52-.2v-7.48c0-.19.33-.2.52-.2s.52,0,.52.2v3.12h3.54v-3.12c0-.19.32-.2.52-.2s.51,0,.51.2Z"/>
          <path class="cls-1" d="M174.61,112.05c0,.18-.33.19-.52.19s-.52,0-.52-.19v-7.5c0-.18.33-.19.52-.19s.52,0,.52.19Zm-2.24-2.28c0,1.38-.87,2.43-3.06,2.43h-1.62a.39.39,0,0,1-.41-.42v-7.23c0-.18.33-.19.52-.19s.52,0,.52.19v3h1.08C171.56,107.5,172.37,108.47,172.37,109.77Zm-1.08.1c0-1.19-.81-1.52-2-1.52h-1v3h1.06C170.77,111.35,171.29,110.75,171.29,109.87Z"/>
          <path class="cls-1" d="M197.89,111.1a.58.58,0,0,1-.15.49,3.51,3.51,0,0,1-2.2.71c-2.26,0-3.31-1.65-3.31-3.9s1.17-4.1,3.43-4.1a3.44,3.44,0,0,1,2,.65c.1.1.18.17.18.54,0,.17,0,.46-.19.46a3.92,3.92,0,0,0-2-.75c-1.64,0-2.32,1.5-2.32,3.14s.65,3,2.34,3a2.92,2.92,0,0,0,1.81-.62C197.85,110.5,197.89,110.69,197.89,111.1Z"/>
          <path class="cls-1" d="M206.91,108.21c0,2.44-1.12,4.1-3.57,4.1s-3.41-1.55-3.41-4,1.15-4,3.57-4S206.91,105.79,206.91,108.21Zm-1.1.07c0-1.79-.58-3.1-2.37-3.1s-2.41,1.35-2.41,3.09.54,3.14,2.37,3.14S205.81,110.05,205.81,108.28Z"/>
          <path class="cls-1" d="M214.26,104.84c0,.19,0,.44-.2.44h-2.19V112c0,.19-.33.2-.52.2s-.52,0-.52-.2v-6.76h-2.19c-.18,0-.2-.25-.2-.44s0-.44.2-.44h5.42C214.24,104.4,214.26,104.66,214.26,104.84Z"/>
          <path class="cls-1" d="M222.74,108.21c0,2.43-1.11,4.1-3.56,4.1s-3.41-1.53-3.41-4,1.15-4,3.57-4S222.74,105.81,222.74,108.21Zm-1.1.07c0-1.79-.57-3.1-2.37-3.1s-2.4,1.35-2.4,3.09.53,3.14,2.36,3.14S221.64,110.05,221.64,108.28Z"/>
          <path class="cls-1" d="M230.65,110a2.14,2.14,0,0,1-1.94,2.17,27.39,27.39,0,0,1-2.82.07.37.37,0,0,1-.39-.42v-7a.38.38,0,0,1,.39-.42h1.77c1.84,0,2.49.82,2.49,2a1.71,1.71,0,0,1-1,1.66A1.89,1.89,0,0,1,230.65,110Zm-1.56-3.49c0-.93-.56-1.23-1.48-1.23h-1.07v2.53h1.18A1.22,1.22,0,0,0,229.09,106.47Zm.47,3.55c0-.86-.5-1.42-1.78-1.42h-1.24v2.75H228C229.05,111.35,229.56,110.78,229.56,110Z"/>
          <path class="cls-1" d="M240.66,112.05c0,.18-.32.19-.52.19s-.52,0-.52-.19v-7.5c0-.18.33-.19.52-.19s.52,0,.52.19Zm-2.25-2.28c0,1.39-.85,2.43-3,2.43h-1.63a.38.38,0,0,1-.4-.42v-7.23c0-.18.33-.19.52-.19s.51,0,.51.19v3h1.08C237.6,107.5,238.41,108.47,238.41,109.77Zm-1.07.1c0-1.17-.82-1.52-2-1.52h-1v3h1.07C236.81,111.35,237.34,110.75,237.34,109.87Z"/>
          <path class="cls-1" d="M249.69,112.05c0,.18-.31.19-.52.19s-.52,0-.52-.19v-5.12c0-.23,0-.52,0-.75h0c-.17.28-.34.56-.5.8l-3.37,5.07c-.12.17-.22.19-.5.19s-.46,0-.46-.21v-7.48c0-.18.33-.19.52-.19s.52,0,.52.19v5.15a5.16,5.16,0,0,1,0,.71h0c.27-.43.32-.53.5-.79l3.36-5.08c.11-.16.27-.18.5-.18s.46,0,.46.2Zm-1-9.68c0,1-.79,1.56-1.85,1.56s-1.85-.52-1.85-1.56c0-.2.2-.22.47-.22s.44,0,.44.26a1,1,0,0,0,1.88,0c0-.21.17-.23.41-.23S248.68,102.16,248.68,102.37Z"/>
          <path class="cls-1" d="M265.26,108.21c0,2.42-1.11,4.1-3.56,4.1s-3.41-1.52-3.41-4,1.17-4,3.56-4S265.26,105.81,265.26,108.21Zm-1.1.07c0-1.79-.58-3.1-2.37-3.1s-2.41,1.36-2.41,3.09.54,3.14,2.37,3.14S264.16,110,264.16,108.28Z"/>
          <path class="cls-1" d="M273.62,112.05c0,.18-.32.19-.52.19s-.52,0-.52-.19V105.3h-3.53v6.75c0,.18-.33.19-.51.19s-.52,0-.52-.19v-7.23c0-.28.15-.42.37-.42h4.87c.22,0,.36.13.36.42Z"/>
          <path class="cls-1" d="M281.14,111.77c0,.18,0,.43-.21.43h-3.74a.38.38,0,0,1-.39-.42v-7a.38.38,0,0,1,.39-.42h3.7c.18,0,.21.26.21.44s0,.42-.21.42h-3.05v2.45h2.62c.18,0,.2.25.2.43s0,.41-.2.41h-2.62v2.78h3.09C281.12,111.33,281.14,111.58,281.14,111.77Z"/>
          <path class="cls-1" d="M288.73,106.68c0,1.47-.94,2.56-2.87,2.56H285V112c0,.19-.33.2-.52.2s-.52,0-.52-.2v-7.19a.4.4,0,0,1,.41-.45H286C287.89,104.4,288.73,105.37,288.73,106.68Zm-1.09.09c0-1.06-.63-1.52-1.7-1.52h-1v3.14h.93A1.54,1.54,0,0,0,287.64,106.77Z"/>
          <path class="cls-1" d="M296.59,111.83c.14.39,0,.41-.45.41s-.53,0-.6-.19l-.67-1.9h-3.24L291,112c-.08.22-.3.22-.58.22s-.57,0-.43-.41l2.61-7.25c.09-.22.33-.22.68-.22s.62,0,.7.22l2.62,7.25Zm-3.36-6.39h0l-1.34,3.88h2.71Z"/>
          <path class="cls-1" d="M303.12,104.84c0,.19,0,.44-.2.44h-2.19V112c0,.19-.33.2-.52.2s-.52,0-.52-.2v-6.76H297.5c-.18,0-.2-.25-.2-.44s0-.44.2-.44h5.42C303.11,104.4,303.12,104.66,303.12,104.84Z"/>
          <path class="cls-1" d="M311.6,108.21c0,2.43-1.11,4.1-3.56,4.1s-3.41-1.53-3.41-4,1.15-4,3.57-4S311.6,105.81,311.6,108.21Zm-1.1.07c0-1.79-.57-3.1-2.36-3.1s-2.41,1.35-2.41,3.09.53,3.14,2.36,3.14S310.5,110.05,310.5,108.28Z"/>
          <path class="cls-1" d="M319.15,106.68c0,1.47-.94,2.56-2.87,2.56h-.88V112c0,.19-.33.2-.52.2s-.52,0-.52-.2v-7.19a.4.4,0,0,1,.41-.45h1.67C318.33,104.4,319.15,105.38,319.15,106.68Zm-1.09.09c0-1.07-.64-1.52-1.7-1.52h-1v3.14h.93A1.54,1.54,0,0,0,318.06,106.77Z"/>
          <path class="cls-1" d="M183.64,112.05c0,.18-.31.19-.52.19s-.51,0-.51-.19v-5.12c0-.23,0-.52,0-.75h0c-.16.28-.34.56-.49.8l-3.38,5.07c-.12.17-.22.19-.5.19s-.45,0-.45-.21v-7.48c0-.18.33-.19.51-.19s.52,0,.52.19v5.15c0,.3,0,.47,0,.71h0c.27-.43.32-.53.5-.79l3.37-5.08c.1-.16.26-.18.49-.18s.46,0,.46.2Zm-1-9.68c0,1-.79,1.56-1.85,1.56s-1.85-.52-1.85-1.56c0-.2.2-.22.48-.22s.43,0,.43.26a1,1,0,0,0,1.88,0c0-.21.17-.23.42-.23S182.63,102.16,182.63,102.37Z"/>
        </g>
      </g>
    </g>
  </g>
</svg>
