<svg xmlns="http://www.w3.org/2000/svg" width="26.28" height="40.95" viewBox="0 0 26.28 40.95">
  <defs>
    <style>
      .cls-1 {
        fill: #fff;
        fill-rule: evenodd;
      }
    </style>
  </defs>
  <title>phone</title>
  <g id="Layer_2" data-name="Layer 2">
    <g id="main">
      <path class="cls-1" d="M19.82,37.14A3.77,3.77,0,0,1,16,41H3.76A3.66,3.66,0,0,1,0,37.27V10.13A3.61,3.61,0,0,1,3.61,6.45H16.08a3.64,3.64,0,0,1,3.74,3.76V37.14ZM17.41,13.48H2.4V33.93h15V13.48ZM14.12,10.7c.56,0,.89-.29.89-.73a.75.75,0,0,0-.82-.77H5.68c-.55,0-.9.29-.91.74s.35.76.93.76ZM7.87,37.44a2,2,0,1,0,2-2A2,2,0,0,0,7.87,37.44ZM24.55,9h1.73C26.28,3.55,22.55,0,17.2,0V1.72A7.08,7.08,0,0,1,24.55,9Zm-7.34-5.9V4.67A4.11,4.11,0,0,1,21.6,9h1.62A5.88,5.88,0,0,0,17.21,3.05Z"/>
    </g>
  </g>
</svg>
