<svg xmlns="http://www.w3.org/2000/svg" width="149" height="149" viewBox="0 0 149 149">
  <defs>
    <style>
      .cls-1 {
        fill: #6600ad;
      }
    </style>
  </defs>
  <title>plus_1</title>
  <g id="Layer_2" data-name="Layer 2">
    <g id="main">
      <path class="cls-1" d="M79.37,77.4A16.3,16.3,0,0,1,81,84.5,16.5,16.5,0,1,1,64.5,68a16.3,16.3,0,0,1,7.1,1.63l-3.85,3.84a11.5,11.5,0,1,0,7.78,7.78Zm68.84-55.07-30,28a2.54,2.54,0,0,1-1.71.67h-15L70.12,82.42a6,6,0,1,1-3.54-3.54L98,47.47v-15a2.54,2.54,0,0,1,.67-1.71l28-30A2.5,2.5,0,0,1,131,2.5V18h15.5a2.5,2.5,0,0,1,1.71,4.33ZM126,8.84l-9,9.65v10l9-9ZM103,42.47l9-9V23.84l-9,9.65ZM125.16,37h-9.62l-9,9h9Zm15-14H129.54l-9,9h10Zm-47,40.6a35.55,35.55,0,1,1-7.77-7.77L89,52.25A40.54,40.54,0,1,0,96.75,60Zm27.08-11.08A5.51,5.51,0,0,1,116.5,54h-.94A59.57,59.57,0,1,1,95,33.44V32.5a5.51,5.51,0,0,1,1.48-3.75l.14-.15A64.58,64.58,0,1,0,120.4,52.38Z"/>
    </g>
  </g>
</svg>
