<svg xmlns="http://www.w3.org/2000/svg" width="140" height="133" viewBox="0 0 140 133">
  <defs>
    <style>
      .cls-1 {
        fill: #6600ad;
      }
    </style>
  </defs>
  <title>plus_3</title>
  <g id="Layer_2" data-name="Layer 2">
    <g id="main">
      <path class="cls-1" d="M70,115.51a49,49,0,0,1-12.69-1.67,2.5,2.5,0,0,1,1.3-4.82A44.07,44.07,0,0,0,108.1,88.51a2.5,2.5,0,1,1,4.33,2.5A49.17,49.17,0,0,1,70,115.51ZM140,35.1a29.77,29.77,0,0,1-.22,4.29c-.22,1.53-.33,2.09-1.35,2.47-1.46.55-3.48,2-4.8,7.11-.07.27-.15.58-.23.91A66.51,66.51,0,1,1,5.58,46.5c-1.26-3.14-2.82-4.19-4-4.64-1-.38-1.13-.94-1.35-2.47A29.77,29.77,0,0,1,0,35.1c0-1.3.62-1.45,2.21-1.66,1-.13,4.44-.54,9.67-.95A66.46,66.46,0,0,1,126,32.34c6.4.45,10.65.95,11.76,1.1C139.38,33.65,140,33.8,140,35.1Zm-121.94-3c5.1-.29,11.18-.51,17.88-.51,17.29,0,22,2.15,33.28,2.23h1.56c11.32-.08,16-2.23,33.28-2.23,5.81,0,11.15.17,15.8.4a61.45,61.45,0,0,0-101.8.11Zm112.28,30.2c-.57,2-1.16,3.94-1.76,5.47a7.42,7.42,0,0,1-3,3.54c-2.28,1.3-12.46,2.26-21.86,2.26s-17.51-.74-20.09-3.89S77.11,51.34,75.82,48a6.2,6.2,0,0,0-11.64,0C62.89,51.34,59,66.5,56.4,69.66s-10.69,3.89-20.09,3.89-19.58-1-21.86-2.26a7.42,7.42,0,0,1-3-3.54A95.4,95.4,0,0,1,8.26,56.87,61.5,61.5,0,1,0,130.5,66.5C130.5,65.08,130.43,63.68,130.34,62.28Z"/>
    </g>
  </g>
</svg>
