<svg xmlns="http://www.w3.org/2000/svg" width="241.87" height="138.61" viewBox="0 0 241.87 138.61">
  <defs>
    <style>
      .cls-1 {
        fill: #ad0055;
      }
    </style>
  </defs>
  <title>plus_2</title>
  <g id="Layer_2" data-name="Layer 2">
    <g id="main">
      <path class="cls-1" d="M209.33,14.07A4.92,4.92,0,0,0,211,16.5a2.39,2.39,0,0,0,.22.23l.52.52.07.07a5,5,0,0,0,.87,5,5.21,5.21,0,0,0,.52.53,2.66,2.66,0,0,0,.23.24l.38.39a5,5,0,0,0,5.33,1.13l.5-.19.26-.11,2.59,7.5a6.45,6.45,0,0,0-.47.69l-1,1.84a5,5,0,0,0-6.34-.35l-1.44,1a5,5,0,0,0-2,3.23L211,39.66a4.89,4.89,0,0,0,.22,2.46,5.09,5.09,0,0,0-.95,1.66,5,5,0,0,0-1.22,2.48l-.73,4.07a5,5,0,0,0,1.27,4.3l.92,3.13A5.08,5.08,0,0,0,209.1,59l-1.5,1a5,5,0,0,0-2.13,3.14,4.88,4.88,0,0,0-.64,1.16l-.07.06-.46.42a5,5,0,0,0-1.61,3.27l-3.34,4.09a5,5,0,0,0-1,4.45,5,5,0,0,0,.39,4.3l-.47,3.7a4.83,4.83,0,0,0,.19,2.14l-.7,6.24a5,5,0,0,0,5,5.56h.58a5,5,0,0,0,1-.11,5,5,0,0,0,2.42.83l.37,0a24.53,24.53,0,0,0,3.06-.57l.77-.31a5,5,0,0,0,1.78-1.2,5.7,5.7,0,0,0,1.12-.89l4,10,.12,1a5,5,0,0,0-4.32-.63l-1.57.5a5,5,0,0,0-2.82,2.26l-.68,1.17a5,5,0,0,0-4.9-.23l-2.85.15L194.81,105a5,5,0,0,0-3.39-1.32,4.93,4.93,0,0,0-1.2.15l-8.19,2a5,5,0,0,0-2.77,1.83l-2.54,3.34a5,5,0,0,0,.05,6.11l.4.5.42,3-.38,0a5,5,0,0,0-2.22.52,5.07,5.07,0,0,0-4.52,1.16l-5.5,5-1.9,0a5,5,0,0,0-2.84-1l-6.2-.29h-.24a5,5,0,0,0-1.83.35l-9.86-3.2a5.15,5.15,0,0,0-1.54-.24,5,5,0,0,0-4.25,2.37l-2.19,3.53a4.06,4.06,0,0,0-.39.78l-2.67-.76a4.92,4.92,0,0,0-1.37-.19h-.15a5,5,0,0,0-5.13.23,4.89,4.89,0,0,0-2,1.08,5.77,5.77,0,0,0-1,.61l-.84.66a4.87,4.87,0,0,0-2.29,1.2,5.25,5.25,0,0,0-1.55-.78,4.88,4.88,0,0,0-1.46-.22,6.09,6.09,0,0,0-.85.07l-2.73-2.86a5,5,0,0,0-3.62-1.55,4.93,4.93,0,0,0-1.2.15,5,5,0,0,0-2.94-1.64l-2.22-4.91a5,5,0,0,0-.11-3l-.19-.54a5,5,0,0,0-4.71-3.31,4.94,4.94,0,0,0-1.82.34l-1.24.48a5.18,5.18,0,0,0-1.58-.78l-.55-.16-.27-.27h0a5,5,0,0,0-2.86-4.14l-.47-.22a5,5,0,0,0-2.24-1.1L83,107.48a4.91,4.91,0,0,0-3.31.45l-8-.41-3.48-.88a5.17,5.17,0,0,0-1.23-.15A5,5,0,0,0,62.22,110l-.14.44a5,5,0,0,0-2,2c-.13.1-.26.2-.38.31a5,5,0,0,0-2-.42,5,5,0,0,0-3.29-1.23h-.3l-2.55-4a5,5,0,0,0-2.08-1.83,5,5,0,0,0-3-1.74l-.94-.18a5.47,5.47,0,0,0-.9-.08,5.05,5.05,0,0,0-2.06.44,5.3,5.3,0,0,0-.88-.07,5.16,5.16,0,0,0-1.83.34,5,5,0,0,0-2.67-.77H36.6a5,5,0,0,0-3.43,1.36,5,5,0,0,0-1.62,1.09l-1.1,1.09a4.23,4.23,0,0,0-.51.61l-.54.25a5,5,0,0,0-2.63,6.06,4.93,4.93,0,0,0,0,2.64,5,5,0,0,0-2.22,1.1,4.09,4.09,0,0,0-.47.46,5,5,0,0,0-3,1.44l-.39.39a5.18,5.18,0,0,0-1.06,1.57l-.44-.38a5.12,5.12,0,0,0-.86-2.06L14.89,114a5.21,5.21,0,0,0-1.2-1.19l-.2-1a5,5,0,0,0,2-.9,5.65,5.65,0,0,0,.71,0,5,5,0,0,0,2.54-.69,5.16,5.16,0,0,0,.61-.43,5,5,0,0,0,2.56-1.12l1.42-1.2a4.9,4.9,0,0,0,1.15-1.38A5,5,0,0,0,26.76,104l.57-1a5,5,0,0,0-.09-5l-3.85-6.4a5,5,0,0,0,0-2.44,5.39,5.39,0,0,0,.32-1.21l.39-2.73a6.13,6.13,0,0,0,.05-.74,5,5,0,0,0,1.29-2.26l.43-1.62A5,5,0,0,0,26,78.68l2-4.26a5,5,0,0,0-.49-5.12,5.28,5.28,0,0,0,.84-.93,5,5,0,0,0,1.06-.94l.41-.47a5,5,0,0,0,2.58,1.38,5.2,5.2,0,0,0,1,.09A5,5,0,0,0,37,67l.46-.46a5,5,0,0,0,1.45-3.2L43.08,63a5,5,0,0,0,2.18-.64,4.88,4.88,0,0,0,1.27,2.16l1.63,1.64a5,5,0,0,0,5.22,1.17l.46.16,1.1.33a5.06,5.06,0,0,0,4.62-1,5.07,5.07,0,0,0,1.31.73A5,5,0,0,0,65.56,67l1.6.57a4.81,4.81,0,0,0,1.67.29A5,5,0,0,0,71,67.4l.89-.43a5.16,5.16,0,0,0,1.89-.43l.24.15.24.24.88.81A5,5,0,0,0,78.51,69a4.94,4.94,0,0,0,1-.1l.43.27a5.43,5.43,0,0,0,.84.41,4.83,4.83,0,0,0,.46.44l.73.61a5,5,0,0,0,6.72-.25l.08,0,1.53,2.53a5,5,0,0,0-.66,4.62l.58,1.61A5,5,0,0,0,92.88,82L96,83.43a5,5,0,0,0,6.09-1.61l.72-.26a5.19,5.19,0,0,0,1.65-1l.34.2a5,5,0,0,0,7.51-4.33v-.53a5.05,5.05,0,0,0-.43-2,4.51,4.51,0,0,0,0-.9,5,5,0,0,0-.76-3.58,4.81,4.81,0,0,0,1.05-.65,4.94,4.94,0,0,0,.94-1h.78a5,5,0,0,0,4.85-3.79l.15-.61a5,5,0,0,0-.14-2.89l1.6-.36a5,5,0,0,0,3.75-3.6,5.2,5.2,0,0,0,.1-2.11.49.49,0,0,1,0-.12L126.86,53h.38a4.91,4.91,0,0,0,2.1-.46,5,5,0,0,0,2.12-.67,5,5,0,0,0,3.59-2.7l.38.12a4.92,4.92,0,0,0,1.25.23l-.33.68a5,5,0,0,0-1.94,2.35l-1.26,3.19a5,5,0,0,0,6.68,6.42l.69-.31a5,5,0,0,0,2.58-2.65l1-.75a5.15,5.15,0,0,0,1.18.14h.54a5,5,0,0,0,3.56-1.49,4.89,4.89,0,0,0,1.21.15h1.8a5,5,0,0,0,2-.42L157,55.68a5,5,0,0,0,1.17-.72,5.21,5.21,0,0,0,.92.72,5.3,5.3,0,0,0,1.37.89l2.92,1.26a5,5,0,0,0,2,.42h.16a5.47,5.47,0,0,0,1.07.11,5,5,0,0,0,5-4.68A5,5,0,0,0,173,52.42a.83.83,0,0,0,.08-.12,5,5,0,0,0,3.69-3.85A5,5,0,0,0,178,45.62a5.06,5.06,0,0,0,1.83-1.1l.65-.62a4.88,4.88,0,0,0,1-1.22h.34a4.93,4.93,0,0,0,2.15-.49,4.74,4.74,0,0,0,1.07-.68,5,5,0,0,0,3.39-2.15l1.85-2.75a5.06,5.06,0,0,0,1.92.38,5,5,0,0,0,1.88-.37l2.41-1a5,5,0,0,0,3-3.64,4.7,4.7,0,0,0,.09-1.18l.33-.32A5.26,5.26,0,0,0,200.9,29a5.26,5.26,0,0,0,.72-1l1-.27a5,5,0,0,0,3.52-3.35l.19-.62a5,5,0,0,0-.09-3.24l-.23-.62a5.26,5.26,0,0,0-1-1.59l2-2.59,2.28-1.62m20,41.44,2.24,2.9.12.15,0,.7L229.23,57a4.69,4.69,0,0,0,.1-1.45M218,0l-3.76,3.5-.43,0V3.8l.62.16-.73.5-.23.69,2.69.07v.47l-1.44,1-.79-.59-.88.27-.62-.62-8.87,6.29-4,5.24.23.65-1.15.35-.08.8-.69.35-.19,1.15h.77l.23.54,2.68.5.24.61-.2.62-3.11.81-.57-.58.55-.56-.73-.73L196.73,23l.53.77-.15.46.38.39-.23.92-1,.69V27l-.5.5h-.57l-1.08,3.19.37.36-2.4,1-1.6-1.59-2.32.25-4,5.91-1.54-.34-1,.57.11.89-.73-.77-.53.61h-.85l-.27-.42.58-.69-.69-.5-2,.88L177,40.26l-.66.62.2-1.5-.73-.23L174.6,40l.27-1,.73-.49-.16-.39-2.53,1-.31.88-2.31,1,.81.5.12.54-.85.76v.81l.46.31.39-1,.27.23v.85L173,45.14l-.57.58-.73,0-.75.79.9.4v.58l-2.57,0-.54,1,.19,1-1.8.23-.54-.53-1-.12,1,4.3-.88-.46-.34.35L162.5,52v-.61l-.35-.35-.42.38-.54-.53.81-.47v-.84l-.39-.38-.73.46v-.73l-.44-.45H160l.31-.94-.93-.3-.27.26-.84-.65-.92,1.31-.31-.35-.31.08-.15.46-1-.83-.48.37-.46-.46L155,51.1l-2.65,1.15-.46-.73-.15.73h-1.19l-.64-.64.27-.26-.29-.45-4.65,2.19.54.5h-.54l-.86-1.82-.63,1.13-1.43-.46.1.68-.1-.68-1,0v.92l.46,0,.29.29-3.75,2.78.15.77-.69.31,1.27-3.19.92-.23,3.44-7.09-1.56-1.55.77.15.08-.81-.92-.92-.27.31-1.29-1.6-.59.29-.45-.44-2.4,1,.35.34-.19.66-.85-.27-.19-.5.5-.5-.56-.56h-.75l-.24.24-1.22-.07,1.1-1.24-.17-.79-.58.08-.77-.47-2.07,4.12.3.23.08.65-2,.27,1,1.23H129l-.11.61-1.19,0-.48.48.36-1.24-.69.11-.19.42L124.5,48l.69.23-6,2.81,0,.57.54,0-.93,1,.33.33-.21.48.31.35-.46.11-.29-.29-.44.44,1.22,1.12-3.61.81v.23l-2.72-.35-.77.69.5,1.27-.58,1.69L113.67,61l0,.54.42.57-.15.62h-1l-.92-.92.27-.77-2.9-1.11h0l0,.47,0-.45-.43.43.21.94-.46.42-1-1-.8.54L109,64.81l-1.24-1.21-.6.37-1.27-1,1-5.27h-.62l-.26.58.26.65-.76,1.54h-.81l-1.58,1.58,1,2.92-1.66,2.61.12,1.23-.46.46.11.73H103l.31.42,1-.71,2.67,2.4-.27.62.23.73-.23.5-.61.19.07,1.15,1.19.58v.53l-1.65-1,0-1.49.62-.62L105.19,71l-1.69.11-2.42,5.72-2.46.93-.53,1.07-3.15-1.42-.58-1.61,1.61,1,.58-.39,1,.19,3-2.38.15-1.42.85-.65.11-.62-1-1.69,2.19-7.34-.65-.57,2-3.88-.35-1.31H103l-.46-.46h-.92l-.46-.65-5.26,6.26.5.15-.54,2.58-1.13.75,1.4,3.4.61.19-.88.81v.8l-.77.46-3-5,0,0v0l-2.6-3-.3.31-.71-.71-1.29.52,0,2-.73.12V66l-.77-.19-.32.33-.06.71-.73-.62v-.65l.61-.42.12-.54-.41-.4L82.57,65l-2.29-1.41-1.77.5-.88-.8.58-.2.23-.69h.73l-.27-1L77,61.74v.69h-.38l-.42-.77-4.61-.31.15.62-1-.46-1,.23v.69l-1,.46-1.73-.61-.3-2.69L68,59.16l1.39.77.57-1-1.72-3.69H67.6l.16,1.88-1,.58v.61L62.65,63v-.85l.53-.54-1.09-1.44-5,.06,0,1.35-.66.53.27.66-.32.32-1.1-.32-1.54-4.42h-.65l-.65.69-.08,1.5.5.5-.19,1-1,.69L50.06,61l.56-1-.57-1.81,3.38-5.15-.56-.55.86-3.29.54.54-.61,1.31.53.23,2.12,5.61,5.15,1.49,1.1-2.51-.89-9-.56-.27v-.81L60,45l-.2-1.46.41-.41.86.71-.19-1.3-1.57,0,.16-.81-.66.46-2.31-1-2.84,1.42L53,45.87H51L48.35,50.4l-.65-.3-2,1.11v1.31l-.69.27v1l-.92.73H43.05l-.27,3.53-10.22.61,1.35.93-.81.34v1.31l.69.61L33.87,63l-.46.46L32.8,62l-2-1.15-.5.92-2.69.19L25.65,64.2l-1,0-.38.46v.8l-1.54.73.19.69-1.27,2,.89,1.31-.43,1.19,1.39.8-3.08,6.42.58.58-.42,1.61-1.5,0-.65-1-.58,0-1.77,2.62.75,1,.52-.45.77,1,.57.08.43.42-.39,2.73h-.46l-.61.88.84,2.23-.88,1.42,5.3,8.8-.58,1-1.42.19,0,.62-.54-.08-.53.54.15.84-1.42,1.19-1.54-1.65-.65.27-.73-.31-1.42,1,2,1.08-.15.69-2.07-.62-.35.35-1.34-.81,0,2L9.86,107l-.27.57-1.19-1-.88.5L9.21,116l.5-.07.69.92.42.08,3.46,4.84-.16.77.54.5.16,1.22.53.54.85.12.61.88.66.08.76,1.3-.57,1.23,2.07,5.34,3.27-.27,1.25-10.21.39-.4.47.13,2.73-1.23v-.54l4.61.69.38-.38L32,119.67l.58.08.38.42.4-.4,0-3.36L31.6,115l.73-1.5-.8-1.31L34,111v-.69l1.09-1.1h.75l.77-1h.65l.41.41-.25,1.51,1.49.73.77-1.65h1.69l.39-.57,1.57.42,1.37-.79.94.17.27,1.5,1.46-.15,3.11,4.88-.46.46v.61h.5L51,115l1.11,1.46,2.34-.35,1.66,1.5,1.61-.27.48.48v1l1.46,1.75h.67l.42-.42h.39l.75,1.07,1.71-.06,1-1.23-1.85-2.65.31-.8h1.42v-1.66l1.65-.3.66.65h.53l.48-.48-1.36-1.21.54-.54-.27-.57.27-.85,4,1,10.57.54.46-.66,2.57.54.35.69h.69l.58.27.11,2.23-.48.48.21.67.85.23.77-.46.56.56-.25.9.76.23.43-.42,1.46.42v.54l-.93.42-.23,1,1.46-.38.43.61,5.3-2.07.19.53-.46.62H95.8l5.34,11.79.85-.15.42-.88.61-.2.43.5v.58l.88.88.85-.15.38.38,2.42-.63,3.65,3.82v.92l2,.58,1.59-1,1,2.13,5.27-1.65.15-.81h.77l2-1.57h1l.27-.81h.85l.67-.67,1.48,1,1-.42,8.06,2.3,1.77-1.46v-.92l-.67-.67v-.87l-.48-.57,2.19-3.54,12.33,4,.9-.91,6.21.29.84,1.12,6.11-.16,6.88-6.22,1.54.69,1.84-1.08,2.46.31,3.34-2.65-1.29-9.2-.59.48-.42-.54,2.53-3.34,8.18-2,7.61,7,6.49-.35.45-.44,1.94,1.25v.88l2,.62.2-.7,2.3-1.34-.31-1,1.54-2.65,1.58-.5,1.19,1.54v.84l-.58.58,2.54,7.22-.91,1.25-.63-.21-1.15.84v.77l-.91.9,0,.75,3,3.09-.33,3.48.31.31.73,0v-1l.33-.33.21-2.74.82.82.29-1.36.29.29v.51l.56.23,2.26-.84,1.85-3.42-2.34-20-5.21-13-.71.1-.73-1.08h-1.35l.87-1.06-.48-.48-1.81.39-.36-.37-3.79.9,1.14,1.79-.1.64-.42-.31-.69,1.19-.77.31V92.9l-.23-.23-.23.07-.46-.34V92l-.43.46v.58l.54.23v.61l-.4.41-1.67-2.25-1.06,1.06h-.64l-.45.45h-.58l.88-7.89-.38-.42L204,79.8l-.88-1.43.76-1.8-.61-1.23,5-6.11-.53-.73.46-.42h.46l1.13-1.1-.25-.82.81.3.5-.53-.43-.43V64.2l2.73-1.81v-.34l1.42-.39.29.29-.63.21-.16,1,.35.35.73,0,.27-1.54.73-.31-.15-1.92,1.15-.19v-1l.61-.19,0-.73-1.84.81-2-6.69-.69-.46.73-4.07h1l.31-.92-.31-.85L217.36,48V47l.69.35.31.77-.68-5,.37-.51.34,0,.08-.5h-.77l-1.77-1.72.24-1.43L217.61,38l.25.25-.73.69,7.22,17-.64.63.37.64-.6,1.23,6.23,5.9,12.16,7.31L241.14,67l-2.38-2-.08-2.76.84-.12v-.46l-2.88-2,.12-2.39,1.11-.73-1-1.3-1.3.15-2.31-3,.77-.23.31-.73-.75-.75h-.63l-.4.4-3.18-2.8-.63.94.29,1L226.23,49l-2.57-4.61.42-.42V43h.46l.71-.71-.71-.33-.42-1.84.46,0,1.27.89-.35-3.27-.42-.42,1.3-2.31,1-.3L228,35l.65-.58-4.3-12.48.29-.29-.91-.6.23-.34h.81l.5-1.08.77-.3-.85-2-.61.46-.42-.34-1.58.48-.19.36h-.69v-.54L217.86,19v.73l-.5.19-.39-.38.62-.73-1.08.27.27-.62,1.38-.35.62-1-1.69-3.23-.35.34,0-.73-1.42.24-.52-.52v-.52l-.67-.12.58-.38-.29-.29.06-.36,1.53.57.5-.38.5.38.64-.63-.29-1.56L218,9l2.11,0,1.23-1.8L222.2,7l.34-1-.65-.19V5.53h.81l-.27-1.11-.85.65-1.21-1.48V4l-.9-.35-.42.42L218.36,4l.88-.58V2.11l-.81.23.42-.88L218,.65ZM198.05,6.11l-1.33,1.06,0,.82-.2.2.88,2.14.61.13.72-1-.34-.37.51-.74-.09-1.75-.5-.4Zm19.54,12.68ZM125,28.08l-.09.58-1.29.75v.72l.31.32-.69.95L124.39,33l2.34-1.15-.2-1.56.43-.37Zm46.56.27-1.61,1.26h-.17l-.33-.4-1.17,1.17-.52-.25.07.28,1.31,1.06,2.66-1.34.32-1.36ZM167,31h0Zm0,0-.45.14h-1.12l-.94.77-.42-.42-1,.31.07.63.91.91-.39.31-.52-.45-.28.28-.38-.39-.87.18-.39-.21-.17.45.28.28-.52.28v.66l.41.42-.1.49h.38l.49.49-.14.56,3.17.48v-.55l-.45-.42.24-.25.37.37,1.26-1.78.26.26.73-1.08-.63-.21-.42.42-1.77-1.22.54-.78.66,1.29,1.45-.06.34-.34-.17-.74h-.56Zm-39.75,1.15-1.95.6-.7,1.36.11.45-.59.45.27.25.42-.14.7,1.32.8.07.11.45.55-.34.28.45.77.28,1.08-.84-.73-1.18.35-.25,0-1.92-.83-.45-.6.91-.24-.11Zm3.59,2.44-.34,0L129.17,40l.31.17,3.9-2.75-.59-1.22-.42.17-.73-1L131,36.44Zm38.57,2.51-.84.81-.4.4.61.92-.24.56.2.21.32-.66,2.44-1-.49-.9Zm-65.31,4.22-4.49,1.47-.35-.35h-.74L98.17,42l-.68-.06-.57.58-2.79.17-.77.87-.77-.27v.52h-.52l-.42-.42-.24.38.38.46-.35.35,0,.69L91.2,45l-.73,0,.45.45-.84,0v.42l-2.82.94v.28l1,.55-.87.18-.49.76-.38-.38h-.8l-.18,1.05L85,49.06l-.56.35.42.45-1.43.91-.11.45-1.11-.41-.7,1.53.42.59.52,0,.25.63.24.07,0,.83.38.32-.21.34-.56.18-.21.63,1.29,1.29.25-.14.41.62h.39l.56.32v.45L86,58l.35-5.71.59-.25V51.4l.59-.49h.73L89,49.69h.45l.72-.72.31.3v-.85l.29.29h.42l-.1-.69.42-.39v.6l1.15-.84v-.63l.62.18.07-.39,1.82-.14L95,45.86l9.59-2.93Zm-44.63.48Zm159,.38h0Zm-90.86,4.58h0Zm-52.9,10-.77.21-.8,1,.24.67,1.08.41.49-.34.59.1.32-.73L75.33,57Zm143,.78h0ZM107,57.7ZM9.1,58.59,8.9,59,7.79,59l3.07,4.88,1.28-.65.16-1.31-.61-.7L11.76,60l-.69-.6-.26.26.3.3-.12.43-.55-.09-.07-.47L10,59.68l0-.59Zm78,1.21-1,.42.18,1.39.38.11.14.73.73.07ZM214.62,85.13l.2,1.06.27-.06,1.08.66V87l.45.45-.14.67-.76-.24-.23,1.17,7,6,8.06,9.28V105l2,2,.54-.44-.93-1.39.09-1.35h.85l.38-.38,1.07.43v-.4l-1.25-1-.45.44-.73,0-.3-.63-2.49-.86-2.13-5.29,1.13-.2.47-.76ZM.61,98.87,2,100l-.71.11.05.81.67.15-.25.26.1.29L.38,102.84,0,102.55l.11,1.16,3.54,1.2,0,.23.78-.13.12.26.24-.26L7,106.87v-.51l.13.14.64-.36L5.35,102l.36-.13,0-.26-.43-.08.62-.21-1.27-2.3-.51.57.22.36-.22.06Z"/>
    </g>
  </g>
</svg>
