<svg xmlns="http://www.w3.org/2000/svg" width="140" height="139" viewBox="0 0 140 139">
  <defs>
    <style>
      .cls-1 {
        fill: #008ead;
      }
    </style>
  </defs>
  <title>plus_4</title>
  <g id="Layer_2" data-name="Layer 2">
    <g id="main">
      <path class="cls-1" d="M28.5,67A12.5,12.5,0,1,1,41,54.5,12.52,12.52,0,0,1,28.5,67Zm0-20A7.5,7.5,0,1,0,36,54.5,7.5,7.5,0,0,0,28.5,47Zm83,20A12.5,12.5,0,1,1,124,54.5,12.52,12.52,0,0,1,111.5,67Zm0-20a7.5,7.5,0,1,0,7.5,7.5A7.5,7.5,0,0,0,111.5,47Zm-83,67a2.5,2.5,0,0,1-2.16-1.24l-3.68-6.28C12,88.46,0,68,0,54.5,0,39.34,12.79,27,28.5,27S57,39.34,57,54.5c0,13.53-12,34-22.65,52-1.28,2.16-2.51,4.26-3.69,6.28A2.5,2.5,0,0,1,28.5,114Zm0-82C15.32,32,5,41.88,5,54.5c0,12.17,12.18,32.84,22,49.44l1.54,2.61L30,103.94C39.82,87.33,52,66.67,52,54.5,52,41.88,41.68,32,28.5,32Zm83,82a2.5,2.5,0,0,1-2.16-1.24c-1.17-2-2.41-4.12-3.68-6.27C95,88.46,83,68,83,54.5,83,39.34,95.79,27,111.5,27S140,39.34,140,54.5c0,13.53-12,34-22.65,52-1.27,2.15-2.51,4.26-3.69,6.28A2.5,2.5,0,0,1,111.5,114Zm0-82C98.32,32,88,41.88,88,54.5c0,12.17,12.18,32.84,22,49.45.51.88,1,1.74,1.53,2.6l1.54-2.61c9.78-16.61,22-37.27,22-49.44C135,41.88,124.68,32,111.5,32ZM109,0a2.5,2.5,0,0,0-2.5,2.5v9a63.84,63.84,0,0,0-77.1,3.12,2.5,2.5,0,1,0,3.2,3.84A58.89,58.89,0,0,1,101.31,14H95a2.5,2.5,0,0,0,0,5h14a2.5,2.5,0,0,0,2.5-2.5V2.5A2.5,2.5,0,0,0,109,0Zm1.92,120.9a2.49,2.49,0,0,0-3.52-.32,58.85,58.85,0,0,1-70,3.55l7.84-1.1a2.5,2.5,0,1,0-.69-5L30.65,120A2.56,2.56,0,0,0,29,121a2.5,2.5,0,0,0-.48,1.85l1.95,13.86A2.51,2.51,0,0,0,33,138.86a2.11,2.11,0,0,0,.35,0A2.49,2.49,0,0,0,35.42,136l-1.11-7.92a63.85,63.85,0,0,0,76.29-3.68A2.5,2.5,0,0,0,110.92,120.9Z"/>
    </g>
  </g>
</svg>
