<svg xmlns="http://www.w3.org/2000/svg" width="39" height="23.16" viewBox="0 0 39 23.16">
  <defs>
    <style>
      .cls-1 {
        fill: #fff;
        fill-rule: evenodd;
      }
    </style>
  </defs>
  <title>vk</title>
  <g id="Layer_2" data-name="Layer 2">
    <g id="main">
      <path id="Logo" class="cls-1" d="M38.11,1.57c.27-.91,0-1.57-1.3-1.57H32.55a1.84,1.84,0,0,0-1.86,1.21,35.67,35.67,0,0,1-5.24,8.72c-1,1-1.45,1.31-2,1.31-.27,0-.66-.31-.66-1.22V1.57C22.8.48,22.48,0,21.58,0H14.87a1,1,0,0,0-1.08,1c0,1,1.53,1.27,1.69,4.16v6.28c0,1.38-.25,1.63-.79,1.63-1.45,0-5-5.31-7-11.39C7.23.48,6.82,0,5.73,0H1.46C.24,0,0,.57,0,1.21,0,2.34,1.45,7.94,6.74,15.35c3.52,5.07,8.49,7.81,13,7.81,2.71,0,3.05-.61,3.05-1.66V17.68c0-1.22.25-1.47,1.11-1.47.63,0,1.72.32,4.25,2.76,2.89,2.89,3.37,4.19,5,4.19h4.26c1.22,0,1.83-.61,1.48-1.81s-1.76-2.94-3.6-5c-1-1.18-2.48-2.44-2.94-3.07-.63-.82-.45-1.18,0-1.9C32.36,11.38,37.56,4.05,38.11,1.57Z"/>
    </g>
  </g>
</svg>
