<svg xmlns="http://www.w3.org/2000/svg" width="35" height="35.17" viewBox="0 0 35 35.17">
  <defs>
    <style>
      .cls-1 {
        fill: #fff;
        fill-rule: evenodd;
      }
    </style>
  </defs>
  <title>whatsapp</title>
  <g id="Layer_2" data-name="Layer 2">
    <g id="main">
      <path class="cls-1" d="M29.9,5.11a17.43,17.43,0,0,0-27.43,21L0,35.17l9.24-2.43a17.37,17.37,0,0,0,8.33,2.13h0A17.44,17.44,0,0,0,29.9,5.11ZM17.57,31.92h0a14.43,14.43,0,0,1-7.37-2l-.53-.31L4.18,31l1.47-5.35-.35-.54a14.49,14.49,0,1,1,12.27,6.78Zm8-10.85c-.44-.21-2.58-1.27-3-1.41s-.69-.22-1,.22-1.12,1.41-1.38,1.7-.5.33-.94.11a12,12,0,0,1-3.5-2.16,12.64,12.64,0,0,1-2.42-3c-.26-.43,0-.67.19-.88s.43-.51.65-.77a3,3,0,0,0,.44-.72.83.83,0,0,0,0-.77c-.11-.21-1-2.36-1.34-3.23s-.71-.73-1-.75H11.4a1.61,1.61,0,0,0-1.16.54,4.9,4.9,0,0,0-1.52,3.64,8.44,8.44,0,0,0,1.78,4.5c.21.29,3.07,4.69,7.43,6.57a24.1,24.1,0,0,0,2.49.92,5.86,5.86,0,0,0,2.74.17,4.44,4.44,0,0,0,2.94-2.07,3.63,3.63,0,0,0,.25-2.07C26.24,21.4,26,21.29,25.52,21.07Z"/>
    </g>
  </g>
</svg>
